<?xml version="1.0" encoding="UTF-8"?>
<svg width="24px" height="24px" viewBox="0 0 24 24" version="1.1" xmlns="http://www.w3.org/2000/svg" xmlns:xlink="http://www.w3.org/1999/xlink">
    <!-- Generator: Sketch 63.1 (92452) - https://sketch.com -->
    <title>导航ico/模型管理</title>
    <desc>Created with Sketch.</desc>
    <g id="导航ico/模型管理" stroke="none" stroke-width="1" fill="none" fill-rule="evenodd">
        <g id="分组-8" fill-rule="nonzero">
            <rect id="矩形" x="0" y="0" width="24" height="24"></rect>
            <g id="模型管理" transform="translate(4.000000, 5.000000)" fill="#76889c">
                <path d="M14.0083333,14.2666667 L1.925,14.2666667 C1.57951389,14.2666667 1.3,13.9983333 1.3,13.6666667 C1.3,13.335 1.57951389,13.0666667 1.925,13.0666667 L14.0083333,13.0666667 C14.3538194,13.0666667 14.6333333,13.335 14.6333333,13.6666667 C14.6333333,13.9983333 14.3538194,14.2666667 14.0083333,14.2666667 Z M14.5,0.0666666667 C15.0522847,0.0666666667 15.5,0.514381917 15.5,1.06666667 L15.5,10.4 C15.5,10.9522847 15.0522847,11.4 14.5,11.4 L1.5,11.4 C0.94771525,11.4 0.5,10.9522847 0.5,10.4 L0.5,1.06666667 C0.5,0.514381917 0.94771525,0.0666666667 1.5,0.0666666667 L14.5,0.0666666667 Z M4.06666667,4.82416667 L4.06666667,7.35916667 C4.06666667,7.51583333 4.15333333,7.6575 4.29,7.72916667 L7.16666667,9.2275 C7.33333333,9.31416667 7.53166667,9.19416667 7.53166667,9.00583333 L7.53166667,6.47083333 C7.53166667,6.31583333 7.445,6.1725 7.30833333,6.10083333 L4.43166667,4.6025 C4.265,4.51583333 4.06666667,4.63583333 4.06666667,4.82416667 Z M11.98,4.82416667 C11.98,4.63583333 11.7816667,4.51583333 11.615,4.6025 L11.615,4.6025 L8.73833333,6.10083333 C8.60166667,6.1725 8.515,6.31583333 8.515,6.47083333 L8.515,6.47083333 L8.515,9.00583333 C8.515,9.19416667 8.71333333,9.31416667 8.88,9.2275 L8.88,9.2275 L11.7566667,7.72916667 C11.8933333,7.6575 11.98,7.51583333 11.98,7.35916667 L11.98,7.35916667 Z M8.38,2.14416667 C8.15833333,2.04083333 7.9,2.04083333 7.67666667,2.14416667 L7.67666667,2.14416667 L4.745,3.29083333 C4.57,3.3725 4.56333333,3.61583333 4.73166667,3.7075 L4.73166667,3.7075 L7.63,5.28083333 C7.87839761,5.41583539 8.17826906,5.41583539 8.42666667,5.28083333 L8.42666667,5.28083333 L11.315,3.7075 C11.4833333,3.61583333 11.475,3.3725 11.3016667,3.29083333 L11.3016667,3.29083333 Z" id="形状"></path>
            </g>
        </g>
    </g>
</svg>