<?xml version="1.0" encoding="UTF-8"?>
<svg width="24px" height="24px" viewBox="0 0 24 24" version="1.1" xmlns="http://www.w3.org/2000/svg" xmlns:xlink="http://www.w3.org/1999/xlink">
    <!-- Generator: Sketch 63.1 (92452) - https://sketch.com -->
    <title>导航ico/模型服务</title>
    <desc>Created with Sketch.</desc>
    <g id="导航ico/模型服务" stroke="none" stroke-width="1" fill="none" fill-rule="evenodd">
        <g id="分组-5">
            <rect id="Rectangle-15-Copy" x="0" y="0" width="24" height="24"></rect>
            <g id="模型" transform="translate(5.000000, 5.000000)" fill="#76889C" fill-rule="nonzero">
                <path d="M14.9938259,7.27091137 C15.0297817,6.66686643 14.4904444,6.46551811 14.4904445,6.46551811 L11.5061115,5.15675407 L11.5061115,2.27076155 C11.5061115,1.66671661 10.9667743,1.43181025 10.9667743,1.43181025 C10.9667743,1.43181025 8.59369026,0.458626722 7.87457389,0.0894881398 C7.51501572,-0.111860175 7.11950171,0.0894881398 7.11950171,0.0894881398 C7.11950171,0.0894881398 4.89024097,1.09622971 4.20708043,1.39825218 C3.5598757,1.66671661 3.5598757,2.23720349 3.5598757,2.23720351 L3.5598757,5.123196 C3.5598757,5.123196 1.5823057,5.99570537 0.755321877,6.33128589 C-0.0357061196,6.66686641 0.000249693075,7.33802747 0.000249693075,7.33802747 L0.000249693075,10.257578 C0.000249693075,10.895181 0.57554278,11.1300874 0.575542797,11.1300874 C0.575542813,11.1300874 2.48120117,12.136829 3.38009662,12.5730836 C4.06325716,12.8751061 4.49472698,12.5730836 4.49472698,12.5730836 L7.4790599,11.0629713 C7.4790599,11.0629713 9.85214391,12.2039451 10.3914812,12.5730836 C11.0386859,13.0093383 11.4701557,12.6401998 11.4701557,12.6401998 C11.4701557,12.6401998 14.0949305,11.2643196 14.5264003,11.0629713 C14.9578701,10.861623 14.9578701,10.3246941 14.9578701,10.3246941 C14.9578701,10.3246941 14.9938259,7.87495632 14.9938259,7.27091137 Z M3.99134552,8.4454432 L1.25870334,7.20379526 L3.99134552,5.96214733 L6.79589935,7.20379526 L3.99134552,8.4454432 Z M7.0835459,10.2911361 L4.45877117,11.6670162 L4.45877117,9.21727841 L7.0835459,8.04274657 L7.0835459,10.2911361 L7.0835459,10.2911361 Z M7.51501572,3.5795256 L4.53068279,2.27076155 L7.51501572,0.928439461 L10.6072161,2.27076155 L7.51501572,3.5795256 Z M7.98244135,4.38491886 L10.6072161,3.21038702 L10.6072161,5.19031212 L7.98244135,6.398402 L7.98244135,4.38491886 L7.98244135,4.38491886 Z M11.0746417,8.4454432 L8.34199954,7.20379526 L10.9667743,5.96214733 L13.8072839,7.20379526 L11.0746417,8.4454432 Z M14.0949305,10.3582522 L11.5061115,11.6334582 L11.5061115,9.18372036 L14.0949305,8.00918852 L14.0949305,10.3582522 Z" id="形状"></path>
            </g>
        </g>
    </g>
</svg>